<svg width="360" height="140" viewBox="0 0 360 140" fill="none" xmlns="http://www.w3.org/2000/svg">
<path fill-rule="evenodd" clip-rule="evenodd" d="M97.4359 73.0256C96.0256 73.0256 94.8718 71.8718 94.8718 70.4615C94.8718 69.0513 96.0256 67.8974 97.4359 67.8974C98.8462 67.8974 100 69.0513 100 70.4615C100 71.8718 98.8462 73.0256 97.4359 73.0256ZM84.6154 121.744C81.7949 121.744 79.4872 119.436 79.4872 116.615C79.4872 113.795 81.7949 111.487 84.6154 111.487C87.4359 111.487 89.7436 113.795 89.7436 116.615C89.7436 119.436 87.4359 121.744 84.6154 121.744ZM84.6154 98.6667C81.7949 98.6667 79.4872 96.359 79.4872 93.5385C79.4872 90.718 81.7949 88.4103 84.6154 88.4103C87.4359 88.4103 89.7436 90.718 89.7436 93.5385C89.7436 96.359 87.4359 98.6667 84.6154 98.6667ZM84.6154 75.5897C81.7949 75.5897 79.4872 73.2821 79.4872 70.4615C79.4872 67.641 81.7949 65.3333 84.6154 65.3333C87.4359 65.3333 89.7436 67.641 89.7436 70.4615C89.7436 73.2821 87.4359 75.5897 84.6154 75.5897ZM84.6154 52.5128C81.7949 52.5128 79.4872 50.2051 79.4872 47.3846C79.4872 44.5641 81.7949 42.2564 84.6154 42.2564C87.4359 42.2564 89.7436 44.5641 89.7436 47.3846C89.7436 50.2051 87.4359 52.5128 84.6154 52.5128ZM62.8205 103.795C57.8205 103.795 53.8462 99.8205 53.8462 94.8205C53.8462 89.8205 57.8205 85.8462 62.8205 85.8462C67.8205 85.8462 71.7949 89.8205 71.7949 94.8205C71.7949 99.8205 67.8205 103.795 62.8205 103.795ZM62.8205 78.1538C57.8205 78.1538 53.8462 74.1795 53.8462 69.1795C53.8462 64.1795 57.8205 60.2051 62.8205 60.2051C67.8205 60.2051 71.7949 64.1795 71.7949 69.1795C71.7949 74.1795 67.8205 78.1538 62.8205 78.1538ZM61.5385 52.5128C58.718 52.5128 56.4103 50.2051 56.4103 47.3846C56.4103 44.5641 58.718 42.2564 61.5385 42.2564C64.359 42.2564 66.6667 44.5641 66.6667 47.3846C66.6667 50.2051 64.359 52.5128 61.5385 52.5128ZM61.5385 37.1282C60.1282 37.1282 58.9744 35.9744 58.9744 34.5641C58.9744 33.1538 60.1282 32 61.5385 32C62.9487 32 64.1026 33.1538 64.1026 34.5641C64.1026 35.9744 62.9487 37.1282 61.5385 37.1282ZM37.1795 103.795C32.1795 103.795 28.2051 99.8205 28.2051 94.8205C28.2051 89.8205 32.1795 85.8462 37.1795 85.8462C42.1795 85.8462 46.1538 89.8205 46.1538 94.8205C46.1538 99.8205 42.1795 103.795 37.1795 103.795ZM37.1795 78.1538C32.1795 78.1538 28.2051 74.1795 28.2051 69.1795C28.2051 64.1795 32.1795 60.2051 37.1795 60.2051C42.1795 60.2051 46.1538 64.1795 46.1538 69.1795C46.1538 74.1795 42.1795 78.1538 37.1795 78.1538ZM38.4615 52.5128C35.641 52.5128 33.3333 50.2051 33.3333 47.3846C33.3333 44.5641 35.641 42.2564 38.4615 42.2564C41.2821 42.2564 43.5897 44.5641 43.5897 47.3846C43.5897 50.2051 41.2821 52.5128 38.4615 52.5128ZM38.4615 37.1282C37.0513 37.1282 35.8974 35.9744 35.8974 34.5641C35.8974 33.1538 37.0513 32 38.4615 32C39.8718 32 41.0256 33.1538 41.0256 34.5641C41.0256 35.9744 39.8718 37.1282 38.4615 37.1282ZM15.3846 52.5128C12.5641 52.5128 10.2564 50.2051 10.2564 47.3846C10.2564 44.5641 12.5641 42.2564 15.3846 42.2564C18.2051 42.2564 20.5128 44.5641 20.5128 47.3846C20.5128 50.2051 18.2051 52.5128 15.3846 52.5128ZM15.3846 65.3333C18.2051 65.3333 20.5128 67.641 20.5128 70.4615C20.5128 73.2821 18.2051 75.5897 15.3846 75.5897C12.5641 75.5897 10.2564 73.2821 10.2564 70.4615C10.2564 67.641 12.5641 65.3333 15.3846 65.3333ZM2.5641 96.1026C1.15385 96.1026 0 94.9487 0 93.5385C0 92.1282 1.15385 90.9744 2.5641 90.9744C3.97436 90.9744 5.12821 92.1282 5.12821 93.5385C5.12821 94.9487 3.97436 96.1026 2.5641 96.1026ZM2.5641 73.0256C1.15385 73.0256 0 71.8718 0 70.4615C0 69.0513 1.15385 67.8974 2.5641 67.8974C3.97436 67.8974 5.12821 69.0513 5.12821 70.4615C5.12821 71.8718 3.97436 73.0256 2.5641 73.0256ZM15.3846 88.4103C18.2051 88.4103 20.5128 90.718 20.5128 93.5385C20.5128 96.359 18.2051 98.6667 15.3846 98.6667C12.5641 98.6667 10.2564 96.359 10.2564 93.5385C10.2564 90.718 12.5641 88.4103 15.3846 88.4103ZM15.3846 111.487C18.2051 111.487 20.5128 113.795 20.5128 116.615C20.5128 119.436 18.2051 121.744 15.3846 121.744C12.5641 121.744 10.2564 119.436 10.2564 116.615C10.2564 113.795 12.5641 111.487 15.3846 111.487ZM38.4615 111.487C41.2821 111.487 43.5897 113.795 43.5897 116.615C43.5897 119.436 41.2821 121.744 38.4615 121.744C35.641 121.744 33.3333 119.436 33.3333 116.615C33.3333 113.795 35.641 111.487 38.4615 111.487ZM38.4615 126.872C39.8718 126.872 41.0256 128.026 41.0256 129.436C41.0256 130.846 39.8718 132 38.4615 132C37.0513 132 35.8974 130.846 35.8974 129.436C35.8974 128.026 37.0513 126.872 38.4615 126.872ZM61.5385 111.487C64.359 111.487 66.6667 113.795 66.6667 116.615C66.6667 119.436 64.359 121.744 61.5385 121.744C58.718 121.744 56.4103 119.436 56.4103 116.615C56.4103 113.795 58.718 111.487 61.5385 111.487ZM61.5385 126.872C62.9487 126.872 64.1026 128.026 64.1026 129.436C64.1026 130.846 62.9487 132 61.5385 132C60.1282 132 58.9744 130.846 58.9744 129.436C58.9744 128.026 60.1282 126.872 61.5385 126.872ZM97.4359 90.9744C98.8462 90.9744 100 92.1282 100 93.5385C100 94.9487 98.8462 96.1026 97.4359 96.1026C96.0256 96.1026 94.8718 94.9487 94.8718 93.5385C94.8718 92.1282 96.0256 90.9744 97.4359 90.9744Z" fill="#005249"/>
<path d="M125.272 75.5437C125.272 79.6916 142.391 77.7231 142.391 88.6906C142.391 95.8617 136.228 99.869 128.559 99.869C123.697 99.869 118.835 97.4084 115 93.4713L121.642 86.6518C123.56 89.0421 126.299 90.87 128.559 91.081C130.818 91.2919 132.736 90.3076 133.078 89.253C133.9 86.5815 129.175 86.4409 127.737 86.019C122.327 84.3317 116.027 82.0117 116.027 75.1218C116.027 66.8962 124.382 64.084 128.559 64.084C133.352 64.084 138.214 66.3338 142.117 70.4114L135.543 77.1607C133.763 74.7703 130.682 72.8721 128.559 72.8721C127.463 72.8721 125.272 73.2939 125.272 75.5437V75.5437ZM162.619 72.6612C158.442 72.6612 154.949 76.4576 154.949 82.0117C154.949 87.4954 158.442 91.2919 162.619 91.2919C166.864 91.2919 170.357 87.4954 170.357 82.0117C170.357 76.4576 166.864 72.6612 162.619 72.6612V72.6612ZM162.619 64.084C172.548 64.084 180.492 71.7472 180.492 82.0117C180.492 92.2761 172.548 99.869 162.619 99.869C152.758 99.869 144.814 92.2761 144.814 82.0117C144.814 71.7472 152.758 64.084 162.619 64.084ZM208.252 86.8627L215.373 93.4713C211.539 97.8302 206.54 99.869 201.198 99.869C191.338 99.869 183.394 92.2761 183.394 82.0117C183.394 71.7472 191.338 64.084 201.198 64.084C206.54 64.084 211.539 66.1228 215.373 70.4817L208.252 77.0904C206.745 73.5048 203.458 72.6612 201.198 72.6612C197.021 72.6612 193.529 76.4576 193.529 82.0117C193.529 87.4954 197.021 91.2919 201.198 91.2919C203.458 91.2919 206.814 90.6591 208.252 86.8627V86.8627ZM229.643 64.5761V99.3066H219.509V64.5761H229.643ZM229.917 54.5929C229.917 57.5457 227.589 59.8657 224.507 59.8657C221.563 59.8657 219.166 57.5457 219.166 54.5929C219.166 51.7104 221.563 49.4607 224.507 49.4607C227.589 49.4607 229.917 51.7104 229.917 54.5929ZM243.091 74.8406L235.559 70.4114C239.325 66.0525 244.393 64.0137 249.665 64.0137C259.8 64.0137 263.909 69.7084 263.909 75.0515V99.3066H253.774V96.8459C252.199 98.5332 249.391 99.7987 246.241 99.7987C236.997 99.7987 233.436 95.5805 233.436 89.1124C233.436 81.8008 239.188 76.8794 248.501 76.8794H253.774C253.774 74.2782 251.857 72.5909 248.981 72.5909C246.036 72.5909 244.598 73.1533 243.091 74.8406V74.8406ZM253.774 87.847V84.7536H247.816C245.146 84.7536 243.16 86.6518 243.571 89.3233C243.845 91.2216 245.488 91.9949 247.816 91.9949C252.268 91.9949 253.774 89.3937 253.774 87.847ZM279.617 47V99.3066H269.414V47H279.617ZM295.462 47V99.3066H285.258V47H295.462ZM324.454 64.5761H335C335 64.5761 326.235 85.7378 321.099 98.3223C316.511 109.501 313.155 116.25 305.828 116.25C302.815 116.25 299.186 113.227 298.159 112.383L301.103 103.806C302.473 105.142 304.253 105.986 305.691 105.986C309.184 105.986 311.033 98.7442 312.197 94.5259L299.802 64.5761H310.348L317.401 81.9414C319.661 76.317 322.263 69.9193 324.454 64.5761V64.5761Z" fill="#005249"/>
</svg>
